<?xml version="1.0" standalone="no"?>
<!DOCTYPE svg PUBLIC "-//W3C//DTD SVG 20010904//EN"
 "http://www.w3.org/TR/2001/REC-SVG-20010904/DTD/svg10.dtd">
<svg version="1.0" xmlns="http://www.w3.org/2000/svg"
 width="2048.000000pt" height="2048.000000pt" viewBox="0 0 2048.000000 2048.000000"
 preserveAspectRatio="xMidYMid meet">
<metadata>
Created by potrace 1.11, written by Peter Selinger 2001-2013
</metadata>
<g transform="translate(0.000000,2048.000000) scale(0.100000,-0.100000)"
fill="#000000" stroke="none">
<path d="M4715 19259 c-317 -31 -604 -204 -778 -469 -114 -175 -175 -355 -207
-610 -7 -57 -10 -818 -10 -2312 l0 -2228 -497 0 -498 1 -45 67 c-62 92 -174
207 -267 274 -386 277 -881 288 -1283 27 -80 -52 -253 -224 -303 -300 -257
-394 -258 -875 -4 -1254 210 -314 551 -495 932 -495 242 0 457 69 655 209 91
64 217 194 270 279 l45 71 498 1 497 0 0 -2245 0 -2245 -497 0 -498 0 -45 68
c-57 84 -195 224 -280 284 -152 107 -326 172 -523 196 -117 14 -139 14 -251 0
-271 -36 -499 -149 -679 -338 -93 -98 -139 -162 -195 -276 -85 -171 -117 -311
-116 -504 3 -487 305 -900 774 -1060 229 -78 526 -67 762 28 217 87 429 265
532 444 l21 38 498 0 497 0 0 -2270 c0 -2413 -1 -2355 45 -2555 123 -526 541
-874 1050 -875 255 0 539 98 780 269 28 19 2352 1761 5165 3869 4907 3679
5120 3840 5241 3961 133 134 215 246 285 391 l39 80 647 0 648 0 26 -42 c231
-367 693 -575 1119 -503 549 93 945 556 945 1105 0 532 -367 983 -895 1101
-80 18 -372 18 -445 1 -95 -23 -212 -62 -264 -89 -168 -84 -353 -244 -445
-385 l-45 -68 -697 0 -698 0 -59 83 c-63 87 -190 222 -282 298 -30 26 -1848
1391 -4040 3034 -2192 1644 -4471 3353 -5065 3798 -594 446 -1111 833 -1149
860 -230 164 -473 264 -686 282 -41 3 -88 7 -105 9 -16 2 -70 -1 -120 -5z
m5219 -5703 c2434 -1826 4425 -3320 4424 -3321 -2 -1 -1076 -807 -2388 -1791
-1312 -983 -3308 -2480 -4436 -3326 -1128 -846 -2054 -1538 -2058 -1538 -3 0
-6 2997 -6 6661 0 6467 1 6660 18 6647 11 -7 2011 -1507 4446 -3332z"/>
<path d="M6382 13473 c-22 -3 -47 -18 -73 -44 l-39 -39 0 -205 c0 -132 4 -213
11 -229 7 -14 29 -37 50 -51 l39 -25 995 0 c1097 0 1029 -4 1077 62 22 32 23
40 23 233 0 221 -2 230 -69 278 l-31 22 -975 1 c-536 1 -990 -1 -1008 -3z"/>
<path d="M7125 8857 c-40 -24 -62 -43 -81 -72 -18 -27 -19 -57 -24 -495 l-5
-465 -460 -5 -460 -5 -42 -24 c-27 -15 -50 -40 -67 -71 -26 -47 -26 -51 -26
-254 0 -220 4 -240 54 -294 46 -51 48 -52 541 -54 l460 -3 5 -470 c5 -492 5
-489 52 -531 55 -51 74 -54 294 -54 203 0 207 0 254 26 31 17 56 40 71 67 l24
42 5 460 5 460 465 5 c526 6 502 2 553 87 l27 44 0 213 c0 226 -3 243 -51 295
-12 13 -40 32 -63 42 -38 17 -73 19 -488 19 l-447 0 -3 458 c-3 414 -5 460
-21 489 -20 38 -66 83 -84 83 -7 0 -13 5 -13 10 0 15 -449 11 -475 -3z"/>
<path d="M16849 7669 c-8 -4 -27 -13 -43 -20 -53 -25 -222 -199 -245 -254 -12
-27 -26 -59 -31 -70 -5 -11 -19 -47 -31 -80 -18 -54 -28 -77 -59 -150 -5 -11
-20 -54 -33 -95 -14 -42 -31 -89 -38 -105 -6 -17 -17 -43 -24 -60 -7 -16 -21
-52 -30 -80 -10 -27 -22 -54 -25 -60 -4 -5 -10 -23 -14 -40 -8 -33 -91 -249
-106 -277 -6 -10 -10 -23 -10 -29 0 -6 -6 -25 -14 -42 -7 -18 -24 -61 -36 -97
-12 -36 -26 -69 -31 -75 -5 -5 -9 -16 -9 -25 0 -8 -7 -28 -15 -44 -8 -15 -15
-33 -15 -40 -1 -6 -9 -29 -20 -51 -11 -22 -19 -45 -20 -51 0 -7 -7 -25 -15
-40 -8 -16 -15 -37 -15 -46 0 -9 -4 -19 -9 -22 -4 -3 -11 -20 -15 -37 -5 -29
-26 -82 -47 -121 -5 -10 -9 -23 -9 -30 0 -7 -6 -25 -14 -40 -8 -15 -31 -75
-52 -134 -20 -60 -43 -119 -51 -134 -7 -14 -13 -33 -13 -42 0 -9 -4 -19 -9
-23 -5 -3 -13 -20 -17 -37 -3 -18 -10 -39 -15 -48 -21 -40 -38 -83 -44 -111
-4 -16 -13 -42 -21 -57 -8 -15 -14 -35 -14 -44 0 -9 -4 -19 -9 -23 -5 -3 -13
-20 -17 -37 -3 -18 -10 -39 -15 -48 -14 -25 -79 -196 -79 -209 0 -6 -4 -19
-10 -29 -13 -22 -114 -285 -146 -382 -14 -41 -32 -91 -40 -110 -21 -49 -28
-66 -53 -135 -39 -103 -53 -139 -62 -157 -5 -10 -9 -23 -9 -28 0 -6 -20 -62
-45 -123 -50 -125 -52 -137 -29 -172 18 -28 53 -39 174 -55 47 -6 94 -15 105
-20 11 -4 133 -25 270 -45 138 -20 259 -40 270 -45 11 -5 85 -18 165 -30 136
-19 146 -22 172 -51 20 -21 28 -41 28 -65 0 -31 -118 -350 -140 -379 -4 -5
-10 -23 -14 -40 -4 -16 -18 -52 -30 -80 -13 -27 -26 -61 -30 -75 -4 -14 -11
-34 -16 -45 -5 -11 -32 -78 -60 -150 -28 -71 -54 -139 -59 -150 -5 -11 -18
-47 -31 -80 -12 -33 -26 -69 -31 -80 -5 -11 -20 -49 -33 -85 -13 -36 -36 -92
-51 -125 -32 -73 -36 -84 -65 -160 -12 -33 -28 -74 -36 -92 -8 -17 -14 -36
-14 -42 0 -6 -4 -19 -10 -29 -5 -9 -26 -60 -45 -112 -20 -52 -40 -104 -45
-115 -5 -11 -25 -63 -45 -115 -20 -52 -40 -104 -45 -115 -4 -11 -18 -45 -30
-75 -11 -30 -25 -64 -30 -75 -5 -11 -32 -78 -60 -150 -28 -71 -55 -138 -60
-147 -6 -10 -10 -23 -10 -29 0 -6 -6 -25 -14 -42 -39 -90 -56 -138 -56 -159 0
-13 -5 -29 -11 -35 -7 -7 -9 -32 -6 -64 14 -159 87 -282 195 -329 45 -20 132
-27 132 -11 0 5 12 12 26 15 28 7 120 99 130 130 4 11 15 29 26 40 22 24 88
121 88 130 0 4 10 28 21 54 12 26 28 63 36 82 8 19 18 43 23 52 6 10 10 23 10
30 1 7 9 31 20 53 11 22 19 45 20 52 0 7 11 32 24 57 14 25 27 59 31 76 4 16
11 32 16 35 5 4 9 13 9 21 0 8 8 34 19 57 10 23 28 67 39 97 24 64 68 167 82
192 6 10 10 22 10 28 0 12 62 172 94 245 13 28 33 77 45 110 13 33 27 69 31
80 5 11 25 61 45 110 21 50 44 106 52 125 28 68 31 75 48 125 9 28 29 77 44
110 15 33 38 87 50 120 30 79 50 126 61 147 6 10 10 23 10 30 0 6 8 30 19 52
41 91 51 115 51 125 0 6 4 19 10 29 5 9 24 53 41 97 17 44 36 94 43 110 21 48
52 126 71 175 10 25 24 61 32 80 8 19 18 44 22 55 5 11 19 45 31 75 25 62 24
59 75 190 20 52 43 109 50 125 7 17 27 66 45 110 17 44 36 88 41 97 5 10 9 23
9 30 0 7 7 26 15 42 9 16 13 31 11 33 -2 3 2 16 9 30 14 26 5 75 -19 100 -6 6
-54 17 -106 23 -52 7 -104 16 -115 21 -11 5 -47 11 -79 13 -33 3 -62 10 -65
15 -4 6 -12 6 -20 2 -7 -5 -32 -4 -54 1 -34 7 -44 6 -53 -7 -11 -15 -13 -14
-19 5 -6 19 -12 21 -41 17 -22 -4 -33 -2 -31 5 2 11 -31 19 -120 31 -33 4 -40
2 -36 -9 3 -9 -2 -14 -16 -14 -12 0 -21 4 -21 10 0 11 -71 32 -115 34 -16 1
-39 7 -50 13 -11 6 -30 9 -42 7 -12 -2 -25 1 -28 6 -3 6 -18 10 -33 10 -15 0
-43 5 -62 10 -61 17 -88 94 -55 156 8 16 15 37 15 47 0 9 4 17 8 17 4 0 13 17
19 38 10 32 54 155 78 217 4 11 23 61 42 110 18 50 38 99 43 110 4 11 25 63
45 115 20 52 41 103 46 112 5 10 9 23 9 29 0 6 7 25 15 42 8 18 44 111 80 207
36 96 70 184 75 195 5 11 26 63 45 115 20 52 42 109 50 125 7 17 27 73 45 125
18 52 36 99 41 104 5 6 9 16 9 24 0 8 6 28 14 45 8 18 31 75 51 127 20 52 43
109 50 125 7 17 20 53 30 80 9 28 21 59 25 70 30 71 41 100 74 185 21 52 41
102 45 110 5 9 12 30 15 48 4 17 12 34 17 37 5 4 9 14 9 23 1 9 9 35 20 57 11
22 19 47 20 56 0 8 4 19 9 25 15 15 70 188 77 241 7 58 -16 164 -54 238 -40
81 -143 166 -162 135 -5 -8 -9 -5 -13 9 -4 17 -12 20 -50 18 -25 -1 -51 -5
-58 -8z m136 -49 c3 -5 1 -10 -4 -10 -6 0 -11 5 -11 10 0 6 2 10 4 10 3 0 8
-4 11 -10z m-17 -96 l3 -29 -31 33 c-17 17 -39 32 -49 32 -25 0 -33 11 -20 27
19 22 93 -27 97 -63z m-192 51 c9 -8 13 -23 11 -33 -4 -14 -6 -14 -12 6 -4 12
-11 22 -16 22 -5 0 -9 5 -9 10 0 14 9 12 26 -5z m249 -93 c-3 -3 -16 5 -28 17
l-22 23 28 -17 c15 -10 25 -20 22 -23z m-1018 -3326 c-3 -7 0 -19 6 -25 9 -9
8 -11 -5 -6 -18 7 -24 26 -11 38 11 11 15 8 10 -7z m51 -8 c9 -9 12 -9 12 0 0
6 7 9 15 5 9 -3 13 -8 10 -11 -3 -3 12 -14 32 -24 l38 -19 -33 5 c-19 3 -41 2
-50 -3 -9 -4 -28 -5 -42 0 -14 4 -19 7 -12 8 8 1 10 9 6 26 -7 27 4 33 24 13z
m192 -83 c0 -8 -7 -15 -15 -15 -18 0 -20 -29 -2 -35 6 -2 61 -6 121 -9 83 -3
112 -8 125 -21 15 -15 14 -16 -10 -10 -16 4 -30 2 -33 -4 -9 -13 -73 -15 -80
-2 -3 5 -15 7 -25 4 -10 -3 -22 0 -25 6 -4 6 -28 11 -53 11 -36 0 -44 3 -39
15 5 15 -8 20 -46 17 -10 -1 -18 4 -18 12 0 18 27 29 63 27 15 -2 27 2 27 8 0
6 2 11 5 11 3 0 5 -7 5 -15z m140 5 c0 -5 -4 -10 -10 -10 -5 0 -10 5 -10 10 0
6 5 10 10 10 6 0 10 -4 10 -10z m-365 -22 c6 -4 2 -8 -7 -8 -10 0 -18 7 -18
17 0 9 3 12 8 7 4 -5 12 -12 17 -16z m75 -10 c0 -11 -31 -10 -50 2 -10 6 -5 9
18 8 18 -1 32 -5 32 -10z m580 -21 c8 -3 -4 -5 -27 -5 -24 1 -43 5 -43 9 0 11
33 17 45 9 6 -4 17 -10 25 -13z m-720 3 c0 -5 -7 -10 -16 -10 -8 0 -12 5 -9
10 3 6 10 10 16 10 5 0 9 -4 9 -10z m775 -104 c10 -25 22 -43 27 -40 4 3 8 0
8 -6 0 -21 -35 -5 -48 22 -10 22 -21 28 -67 33 -70 9 -71 23 -2 28 28 2 55 4
58 5 3 1 14 -18 24 -42z m175 4 c0 -5 7 -10 15 -10 8 0 15 -5 15 -11 0 -6 -21
-9 -52 -8 -65 3 -72 7 -57 25 13 16 79 19 79 4z m140 -30 c0 -5 -2 -10 -4 -10
-3 0 -8 5 -11 10 -3 6 -1 10 4 10 6 0 11 -4 11 -10z m105 -21 c11 -16 1 -19
-13 -3 -7 8 -8 14 -3 14 5 0 13 -5 16 -11z m-152 -26 c-7 -2 -19 -2 -25 0 -7
3 -2 5 12 5 14 0 19 -2 13 -5z m77 -38 c19 -23 8 -26 -19 -4 -16 13 -18 19 -8
19 8 0 20 -7 27 -15z"/>
<path d="M16190 4039 c0 -5 5 -7 10 -4 6 3 10 8 10 11 0 2 -4 4 -10 4 -5 0
-10 -5 -10 -11z"/>
<path d="M14383 6167 c-37 -14 -73 -40 -149 -112 -29 -27 -67 -63 -84 -79 -35
-33 -68 -98 -106 -211 -14 -44 -30 -84 -35 -89 -5 -6 -9 -19 -9 -31 0 -11 -6
-30 -14 -41 -8 -11 -18 -37 -22 -59 -4 -21 -13 -50 -20 -64 -8 -14 -14 -34
-14 -43 0 -9 -4 -20 -10 -23 -5 -3 -10 -12 -10 -20 0 -8 -5 -26 -11 -42 -7
-15 -33 -89 -59 -163 -65 -187 -120 -341 -130 -365 -5 -11 -18 -51 -30 -90
-11 -38 -28 -84 -36 -102 -7 -17 -14 -38 -14 -46 0 -9 -3 -18 -8 -20 -4 -3
-18 -38 -31 -79 -13 -40 -28 -82 -33 -93 -14 -34 -69 -188 -77 -220 -5 -16
-13 -41 -19 -55 -13 -30 -24 -61 -28 -75 -5 -21 -48 -141 -60 -170 -7 -16 -21
-57 -32 -90 -11 -33 -24 -71 -30 -85 -5 -14 -15 -43 -22 -65 -7 -22 -18 -53
-25 -70 -13 -31 -56 -150 -95 -265 -12 -36 -26 -74 -31 -85 -4 -11 -18 -49
-29 -85 -12 -36 -25 -74 -30 -85 -22 -50 -72 -193 -77 -215 -2 -14 -9 -34 -14
-45 -22 -48 -79 -212 -79 -227 0 -9 -4 -20 -10 -23 -5 -3 -10 -13 -10 -22 0
-8 -6 -29 -14 -46 -23 -54 -56 -153 -56 -171 0 -9 -4 -16 -10 -16 -19 0 -10
-51 13 -75 18 -19 42 -27 122 -41 55 -9 109 -20 120 -25 11 -4 81 -18 155 -29
74 -12 142 -24 150 -27 8 -4 19 -5 24 -4 5 1 21 -3 35 -8 14 -6 49 -13 76 -15
88 -9 185 -29 185 -38 0 -5 4 -7 10 -3 11 7 135 -12 165 -25 11 -5 83 -18 160
-30 77 -11 149 -25 160 -30 19 -8 48 -14 230 -42 39 -6 74 -14 79 -19 21 -19
53 -7 92 34 65 68 145 177 155 210 11 37 9 126 -2 133 -5 2 -8 327 -8 720 1
669 0 719 -17 774 -11 33 -22 60 -26 60 -5 0 -8 9 -8 20 0 23 -10 26 -28 8 -9
-9 -12 -7 -12 11 0 12 4 20 9 17 5 -4 4 5 -2 18 -7 14 -15 24 -18 23 -4 -1
-15 7 -25 19 -33 37 -85 58 -147 58 -32 1 -61 -4 -65 -9 -4 -6 -14 -10 -22
-10 -9 0 -14 -7 -12 -19 2 -11 -1 -15 -8 -11 -15 9 -199 -182 -224 -232 -10
-21 -22 -46 -27 -55 -5 -10 -9 -205 -8 -434 1 -228 -1 -417 -3 -420 -8 -8 -53
-5 -103 6 -27 7 -57 13 -65 14 -9 1 -20 5 -25 8 -6 3 -37 9 -70 13 -87 10
-115 39 -115 116 0 32 4 60 9 64 5 3 13 20 17 37 3 18 10 39 14 48 19 36 50
124 50 141 0 10 4 20 9 24 5 3 13 20 17 37 3 18 10 39 15 48 8 13 20 46 70
190 6 19 16 43 20 52 5 10 9 23 9 30 0 7 7 26 15 41 8 16 21 50 29 75 8 26 34
99 57 162 23 63 47 130 54 147 6 18 14 36 18 39 4 4 7 14 7 22 0 8 6 28 14 45
12 27 34 89 107 297 17 50 40 112 50 135 7 18 33 89 70 195 6 19 16 43 20 52
5 10 9 23 9 29 0 6 6 25 14 42 8 18 24 61 36 97 12 36 25 74 30 85 17 35 33
79 46 120 13 43 64 182 82 228 7 15 20 53 31 85 10 31 24 71 31 87 7 17 16 39
21 50 20 50 31 137 26 206 -8 100 -17 149 -28 149 -5 0 -9 6 -9 13 0 6 -18 32
-40 56 -22 25 -40 48 -40 53 0 4 -6 8 -14 8 -8 0 -21 6 -28 13 -33 34 -108 44
-165 24z m77 -60 c0 -6 -3 -7 -7 -4 -3 4 -20 -2 -38 -13 -28 -17 -34 -18 -51
-5 -17 13 -17 14 -1 15 9 0 17 5 17 11 0 6 9 9 20 6 11 -3 20 -1 20 3 0 4 9 6
20 3 11 -3 20 -10 20 -16z m60 3 c0 -5 -2 -10 -4 -10 -3 0 -8 5 -11 10 -3 6
-1 10 4 10 6 0 11 -4 11 -10z m64 -46 c3 -8 2 -12 -4 -9 -6 3 -10 10 -10 16 0
14 7 11 14 -7z m-149 -13 c3 -5 1 -12 -5 -16 -5 -3 -10 1 -10 9 0 18 6 21 15
7z m75 -43 c17 -12 30 -25 30 -30 0 -18 -30 -6 -58 22 -36 36 -16 41 28 8z
m30 -77 c0 -6 -4 -13 -10 -16 -5 -3 -10 1 -10 9 0 9 5 16 10 16 6 0 10 -4 10
-9z m-55 -2039 c-9 -9 -35 8 -35 24 0 16 2 16 20 -1 11 -10 18 -20 15 -23z
m-48 8 c8 0 13 -7 11 -17 -2 -10 -9 -18 -16 -17 -6 1 -23 2 -37 3 -15 0 -25 7
-25 17 0 11 6 14 20 9 15 -5 20 -2 21 12 0 10 3 13 6 6 2 -7 11 -13 20 -13z
m-107 -40 c-19 -12 -30 -12 -30 -1 0 10 31 20 40 14 2 -2 -2 -8 -10 -13z m132
-19 c-10 -6 -4 -13 22 -25 32 -15 56 -36 41 -36 -13 0 -85 41 -85 49 0 11 11
21 24 21 6 0 5 -4 -2 -9z m-42 -62 c0 -6 -4 -7 -10 -4 -5 3 -10 11 -10 16 0 6
5 7 10 4 6 -3 10 -11 10 -16z m170 -63 c0 -2 -7 -6 -15 -10 -8 -3 -15 -1 -15
4 0 6 7 10 15 10 8 0 15 -2 15 -4z m12 -38 c-6 -6 -15 -8 -19 -4 -4 4 -1 11 7
16 19 12 27 3 12 -12z m-692 -897 c0 -6 -4 -12 -10 -16 -5 -3 -7 -12 -3 -20 7
-20 -21 -20 -37 0 -8 10 -9 15 -2 15 6 0 9 7 6 15 -5 11 1 15 20 15 14 0 26
-4 26 -9z m125 -71 c3 -5 -1 -10 -9 -10 -9 0 -16 5 -16 10 0 6 4 10 9 10 6 0
13 -4 16 -10z m-275 -20 c0 -5 -2 -10 -4 -10 -3 0 -8 5 -11 10 -3 6 -1 10 4
10 6 0 11 -4 11 -10z m-33 -15 c0 -8 -6 -15 -13 -15 -6 0 -14 7 -18 15 -3 10
1 15 13 15 10 0 18 -7 18 -15z m73 5 c0 -5 -4 -10 -10 -10 -5 0 -10 5 -10 10
0 6 5 10 10 10 6 0 10 -4 10 -10z m45 -40 c3 -5 -1 -10 -10 -10 -9 0 -13 5
-10 10 3 6 8 10 10 10 2 0 7 -4 10 -10z m169 -34 c-6 -16 -34 -30 -34 -18 0
10 22 32 32 32 4 0 5 -6 2 -14z m43 8 c-3 -3 -12 -4 -19 -1 -8 3 -5 6 6 6 11
1 17 -2 13 -5z"/>
<path d="M18029 5855 c-32 -12 -75 -42 -98 -69 -9 -10 -40 -46 -70 -80 -131
-149 -139 -179 -140 -548 -1 -153 -3 -283 -6 -290 -2 -7 -7 -274 -11 -593 -4
-319 -11 -735 -14 -925 -4 -190 -8 -589 -9 -887 0 -298 -5 -544 -10 -547 -11
-7 -14 -515 -3 -529 5 -7 12 -24 15 -38 21 -85 282 -141 397 -85 37 17 96 91
126 156 33 72 78 63 125 -25 65 -120 89 -159 144 -230 75 -95 108 -127 197
-187 132 -91 259 -124 436 -114 128 7 148 10 185 25 16 6 32 11 37 11 4 0 21
7 36 15 16 8 37 15 47 15 9 0 17 3 17 8 0 4 19 16 43 27 168 79 431 319 562
513 24 37 54 78 65 92 11 14 20 30 20 36 0 6 7 18 16 25 9 7 20 22 25 34 5 11
27 52 49 90 22 39 60 108 84 155 24 47 63 121 86 164 50 95 80 172 80 204 0
13 5 32 10 43 17 31 -27 220 -58 251 -7 7 -12 17 -12 23 0 15 -65 75 -107 100
-28 16 -35 17 -57 6 -14 -8 -32 -10 -43 -6 -54 23 -114 8 -165 -42 -21 -20
-38 -43 -38 -50 0 -7 -4 -13 -9 -13 -5 0 -14 -12 -20 -27 -6 -16 -27 -55 -46
-88 -19 -33 -51 -94 -71 -135 -116 -237 -323 -469 -509 -572 -85 -46 -262 -77
-280 -48 -4 6 -10 8 -15 5 -4 -3 -13 2 -20 10 -7 8 -18 15 -26 15 -19 0 -77
78 -103 140 -13 30 -27 62 -31 70 -22 45 -29 112 -42 390 -5 108 35 392 77
545 9 33 20 76 24 95 14 57 62 193 77 217 8 12 14 28 14 35 1 7 9 31 20 53 11
22 19 44 20 50 0 5 11 32 24 60 54 114 66 143 66 153 0 6 11 32 25 58 14 26
25 51 25 57 0 5 10 31 21 56 12 25 25 55 30 66 18 45 97 228 135 313 13 29 24
56 24 59 0 4 9 27 21 52 11 25 25 55 29 66 5 11 20 46 34 77 14 31 26 59 26
62 0 5 13 36 65 151 7 17 21 50 30 75 10 25 28 68 40 95 46 101 65 145 65 153
0 5 11 30 25 56 14 26 25 53 25 59 0 7 9 29 20 50 11 20 20 43 20 51 0 7 7 27
15 42 20 39 20 179 -1 241 -25 78 -42 109 -84 155 -34 38 -41 42 -58 31 -17
-10 -19 -9 -15 6 8 31 -88 58 -100 29 -3 -7 -6 -4 -6 6 -1 15 -4 17 -12 9 -9
-9 -16 -9 -30 0 -15 9 -21 8 -32 -7 -8 -11 -19 -16 -26 -12 -14 9 -62 -40
-158 -164 -45 -58 -113 -184 -113 -209 0 -5 -9 -25 -20 -43 -10 -18 -26 -51
-33 -73 -8 -22 -23 -60 -34 -85 -11 -25 -37 -85 -58 -135 -21 -49 -45 -108
-55 -130 -10 -22 -30 -71 -45 -110 -14 -38 -32 -83 -40 -100 -7 -16 -17 -41
-23 -55 -11 -28 -41 -97 -66 -152 -9 -20 -16 -42 -16 -50 0 -8 -4 -18 -10 -24
-5 -5 -20 -39 -34 -76 -14 -37 -34 -87 -45 -110 -10 -24 -42 -99 -71 -168 -28
-69 -60 -143 -70 -165 -10 -22 -30 -71 -45 -110 -40 -103 -54 -134 -82 -192
l-26 -52 -27 19 c-44 31 -43 -68 -14 1253 19 881 19 894 -30 997 -40 84 -72
122 -129 154 -56 32 -126 40 -178 21z m111 -67 c0 -6 -6 -5 -15 2 -8 7 -15 14
-15 16 0 2 7 1 15 -2 8 -4 15 -11 15 -16z m-40 -7 c0 -14 -7 -18 -27 -17 -16
1 -35 6 -43 11 -15 10 -12 11 63 24 4 0 7 -7 7 -18z m-125 -21 c-3 -5 -10 -10
-16 -10 -5 0 -9 5 -9 10 0 6 7 10 16 10 8 0 12 -4 9 -10z m224 -76 c49 -46 31
-55 -19 -10 -22 20 -45 36 -50 36 -6 0 -10 5 -10 11 0 18 42 -2 79 -37z m-99
-6 c0 -13 -23 -5 -28 10 -2 7 2 10 12 6 9 -3 16 -11 16 -16z m1590 -108 c0 -5
-4 -10 -10 -10 -5 0 -10 5 -10 10 0 6 5 10 10 10 6 0 10 -4 10 -10z m30 -41
c0 -5 -7 -9 -15 -9 -15 0 -20 12 -9 23 8 8 24 -1 24 -14z m-1433 -51 c-3 -8
-6 -5 -6 6 -1 11 2 17 5 13 3 -3 4 -12 1 -19z m1263 -18 c0 -5 -4 -10 -10 -10
-5 0 -10 5 -10 10 0 6 5 10 10 10 6 0 10 -4 10 -10z m65 0 c3 -5 2 -10 -4 -10
-5 0 -13 5 -16 10 -3 6 -2 10 4 10 5 0 13 -4 16 -10z m45 -51 c0 -18 -18 -9
-23 12 -4 16 -3 18 9 8 8 -6 14 -15 14 -20z m-1342 -2091 c7 -7 12 -18 12 -26
0 -10 -4 -9 -17 4 -11 11 -18 13 -21 5 -2 -6 -8 -9 -13 -6 -5 4 -3 12 4 20 15
18 20 18 35 3z m1905 -727 c17 -17 -1 -26 -51 -23 -26 1 -71 3 -100 5 -28 1
-52 3 -52 4 0 1 12 9 28 17 31 17 157 15 175 -3z m-1319 -786 c-4 -8 -10 -15
-15 -15 -4 0 -6 7 -3 15 4 8 10 15 15 15 4 0 6 -7 3 -15z m-106 -80 c-3 -3 -9
2 -12 12 -6 14 -5 15 5 6 7 -7 10 -15 7 -18z m468 -25 c0 -13 -5 -19 -14 -15
-7 3 -18 5 -23 5 -5 0 -9 4 -9 9 0 8 11 14 40 20 3 0 6 -8 6 -19z m-385 -27
c13 -16 12 -17 -3 -4 -10 7 -18 15 -18 17 0 8 8 3 21 -13z m124 -63 c-3 -5
-12 -10 -20 -10 -8 0 -17 5 -20 10 -4 6 5 10 20 10 15 0 24 -4 20 -10z m110
-50 c7 -12 -2 -12 -30 0 -19 8 -19 9 2 9 12 1 25 -3 28 -9z m-197 -25 c31 -29
24 -32 -19 -10 -16 9 -27 20 -24 25 9 14 13 13 43 -15z"/>
</g>
</svg>
